# xmcd CD database file generated by OrangeCD 6.2
#
# Track frame offsets:
#	150
#	14790
#	31113
#	47013
#	60834
#	75411
#	92788
#	107958
#	130143
#	145458
#	163718
#
# Disc length: 2445 seconds
#
# Revision: 5
# Processed by: cddbd v1.5.2PL0 Copyright (c) Steve Scherf et al.
# Submitted via: OrangeCD 6.2
#
DISCID=8b098b0b
DTITLE=Buddy Miller - Cruel Moon
DYEAR=1999
DGENRE=Country
TTITLE0=Does My Ring Burn Your Finger
TTITLE1=Love Match
TTITLE2=I'm Gonna Be Strong
TTITLE3=Looking For A Heartache Like You
TTITLE4=Cruel Moon
TTITLE5=Somewhere Trouble Don't Go
TTITLE6=In Memory Of My Heart
TTITLE7=Sometimes I Cry
TTITLE8=I'm Too Used To Lovin' You
TTITLE9=I'm Not Getting Any Better At Goodbye
TTITLE10=It's Been A Change
EXTD=
EXTT0=
EXTT1=
EXTT2=
EXTT3=
EXTT4=
EXTT5=
EXTT6=
EXTT7=
EXTT8=
EXTT9=
EXTT10=
PLAYORDER=
